<?xml version="1.0" encoding="UTF-8" standalone="no"?>
<!-- Uploaded to: SVG Repo, www.svgrepo.com, Transformed by: SVG Repo Mixer Tools -->

<svg
   height="800px"
   width="800px"
   version="1.1"
   id="Layer_1"
   viewBox="-39.07 -39.07 468.81 468.81"
   xml:space="preserve"
   fill="#000000"
   stroke="#000000"
   stroke-width="0.003906700000000001"
   transform="matrix(1, 0, 0, 1, 0, 0)rotate(0)"
   sodipodi:docname="favicon.svg"
   inkscape:version="1.3.2 (091e20e, 2023-11-25, custom)"
   xmlns:inkscape="http://www.inkscape.org/namespaces/inkscape"
   xmlns:sodipodi="http://sodipodi.sourceforge.net/DTD/sodipodi-0.dtd"
   xmlns="http://www.w3.org/2000/svg"
   xmlns:svg="http://www.w3.org/2000/svg"><defs
   id="defs8" /><sodipodi:namedview
   id="namedview8"
   pagecolor="#505050"
   bordercolor="#ffffff"
   borderopacity="1"
   inkscape:showpageshadow="0"
   inkscape:pageopacity="0"
   inkscape:pagecheckerboard="1"
   inkscape:deskcolor="#d1d1d1"
   inkscape:zoom="0.47641319"
   inkscape:cx="785.03283"
   inkscape:cy="255.03072"
   inkscape:window-width="1366"
   inkscape:window-height="715"
   inkscape:window-x="-8"
   inkscape:window-y="-8"
   inkscape:window-maximized="1"
   inkscape:current-layer="Layer_1" />



<g
   id="SVGRepo_tracerCarrier"
   stroke-linecap="round"
   stroke-linejoin="round"
   stroke="#CCCCCC"
   stroke-width="3.12536" />

<g
   id="SVGRepo_iconCarrier"
   transform="matrix(1.2000024,0,0,1.2017655,-39.068938,-39.41256)"> <path
   style="fill:#ffffff"
   d="m 104.564,364.505 c 22.238,-7.046 46.093,-7.046 68.267,-0.517 20.622,5.947 42.279,6.529 59.087,0.517 21.657,-8.145 46.093,-7.046 68.267,-0.517 3.814,1.099 10.861,2.715 14.61,3.232 L 365.219,251.761 195.069,176.965 24.92,251.761 75.861,368.836 c 9.762,0 19.459,-1.616 28.703,-4.331 z"
   id="path1" /> <path
   style="fill:#ffc10d"
   d="m 271.481,32.804 c 0,-5.947 -4.848,-10.861 -10.861,-10.861 H 129.518 c -5.947,0 -10.861,4.848 -10.861,10.861 v 74.279 h 152.824 z"
   id="path2" /> <path
   style="fill:#ffffff"
   d="m 199.401,154.727 128.453,56.889 v -72.081 c 0,-5.947 -4.848,-10.861 -10.861,-10.861 H 73.146 c -5.947,0 -10.861,4.848 -10.861,10.861 v 72.081 l 128.453,-56.889 c 2.715,-1.099 5.947,-1.099 8.663,0 z"
   id="path3" /> <g
   id="g7"> <path
   style="fill:#1f4166"
   d="m 383.643,236.052 -34.133,-14.61 v -81.907 c 0,-17.907 -14.61,-32.517 -32.517,-32.517 H 293.138 V 32.804 c 0,-17.907 -14.61,-32.517 -32.517,-32.517 H 129.518 c -17.907,0 -32.517,14.61 -32.517,32.517 v 74.279 H 73.146 c -17.907,0 -32.517,14.61 -32.517,32.517 v 81.842 l -34.133,14.61 c -5.43,2.198 -8.145,8.663 -5.43,14.093 l 49.842,114.877 c -0.517,0 -4.331,-1.099 -4.848,-1.616 -5.947,-1.616 -11.895,1.616 -13.576,7.564 -1.616,5.947 1.616,11.378 7.564,13.576 23.855,7.564 49.325,7.046 71.564,0.517 18.424,-5.43 37.366,-5.947 55.855,-0.517 23.855,7.564 49.842,7.564 71.564,0.517 17.907,-5.947 37.366,-5.947 55.855,-0.517 29.285,8.663 48.226,5.43 54.174,4.331 5.948,-1.099 9.762,-6.529 9.244,-12.477 -1.099,-5.948 -6.529,-9.762 -12.477,-9.244 -2.198,0.517 -4.331,0.517 -7.046,0.517 L 390.24,250.081 c 1.548,-4.849 -1.167,-11.314 -6.597,-14.029 z M 118.657,32.804 c 0,-5.947 4.848,-10.861 10.861,-10.861 h 131.168 c 5.947,0 10.861,4.848 10.861,10.861 v 74.279 H 118.657 Z M 62.285,139.535 c 0,-5.947 4.848,-10.861 10.861,-10.861 h 243.911 c 5.947,0 10.861,4.848 10.861,10.861 v 72.081 L 199.465,154.727 c -2.715,-1.099 -5.947,-1.099 -8.663,0 L 62.35,211.616 V 139.535 Z M 314.859,367.22 c -3.814,-0.517 -10.861,-2.198 -14.61,-3.232 -22.238,-6.529 -46.093,-7.564 -68.267,0.517 -16.808,5.947 -38.465,5.947 -59.087,-0.517 -22.238,-6.529 -46.093,-6.529 -68.267,0.517 -9.244,2.715 -18.941,4.331 -28.703,4.331 L 24.92,251.761 l 170.149,-74.796 170.15,74.796 z"
   id="path4" /> <path
   style="fill:#194f82"
   d="m 148.459,37.652 c -5.947,0 -10.861,4.848 -10.861,10.861 v 31.418 c 0,5.947 4.848,10.861 10.861,10.861 6.012,0 10.861,-4.848 10.861,-10.861 V 48.513 c 0,-5.948 -4.913,-10.861 -10.861,-10.861 z"
   id="path5" /> <path
   style="fill:#194f82"
   d="m 195.069,37.652 c -5.947,0 -10.861,4.848 -10.861,10.861 v 31.418 c 0,5.947 4.848,10.861 10.861,10.861 5.947,0 10.861,-4.848 10.861,-10.861 V 48.513 c 0,-5.948 -4.913,-10.861 -10.861,-10.861 z"
   id="path6" /> <path
   style="fill:#194f82"
   d="m 241.679,37.652 c -5.947,0 -10.861,4.848 -10.861,10.861 v 31.418 c 0,5.947 4.848,10.861 10.861,10.861 5.947,0 10.861,-4.848 10.861,-10.861 V 48.513 c 0,-5.948 -4.913,-10.861 -10.861,-10.861 z"
   id="path7" /> </g> <path
   style="fill:#c4c4c4"
   d="M 195.069,200.238 53.623,263.139 89.954,346.08 c 2.715,-0.517 5.947,-1.099 8.663,-2.198 21.139,-7.047 58.505,-9.244 80.743,-0.517 16.291,4.331 32,5.43 46.61,0.517 25.471,-8.145 50.941,-8.145 76.412,-1.616 l 34.133,-79.127 z"
   id="path8" /> </g>

</svg>
