<?xml version="1.0" encoding="UTF-8" standalone="no"?>
<!-- Uploaded to: SVG Repo, www.svgrepo.com, Generator: SVG Repo Mixer Tools -->

<svg
   version="1.1"
   id="Layer_1"
   viewBox="0 0 435 435"
   xml:space="preserve"
   sodipodi:docname="favicon.svg"
   inkscape:version="1.3.2 (091e20e, 2023-11-25, custom)"
   xmlns:inkscape="http://www.inkscape.org/namespaces/inkscape"
   xmlns:sodipodi="http://sodipodi.sourceforge.net/DTD/sodipodi-0.dtd"
   xmlns="http://www.w3.org/2000/svg"
   xmlns:svg="http://www.w3.org/2000/svg"><defs
   id="defs1">
	
	
	
	
	
	
	
	
	
	
	
	
	
	
</defs><sodipodi:namedview
   id="namedview1"
   pagecolor="#ffffff"
   bordercolor="#111111"
   borderopacity="1"
   inkscape:showpageshadow="0"
   inkscape:pageopacity="0"
   inkscape:pagecheckerboard="1"
   inkscape:deskcolor="#d1d1d1"
   inkscape:zoom="1.4142136"
   inkscape:cx="290.97443"
   inkscape:cy="184.20131"
   inkscape:window-width="1680"
   inkscape:window-height="997"
   inkscape:window-x="-8"
   inkscape:window-y="-8"
   inkscape:window-maximized="1"
   inkscape:current-layer="Layer_1" />
<path
   id="XMLID_642_"
   style="fill:#eeaa66"
   d="M 237.5,70 V 30 c 0,-16.568 -13.432,-30 -30,-30 -16.568,0 -30,13.432 -30,30 v 40 z" /><path
   id="XMLID_643_"
   style="fill:#e6972a"
   d="m 177.5,30 v 40 h 30 V 0 c -16.568,0 -30,13.432 -30,30 z" /><path
   id="XMLID_644_"
   style="fill:#e9a440"
   d="m 207.5,0 v 70 h 30 V 30 c 0,-16.568 -13.432,-30 -30,-30 z" /><rect
   id="XMLID_647_"
   x="87.5"
   y="60"
   style="fill:#f3f3f2"
   width="240"
   height="70" /><rect
   id="XMLID_650_"
   x="287.5"
   y="60"
   style="fill:#f8f8f9"
   width="40"
   height="70" /><rect
   id="XMLID_651_"
   x="87.5"
   y="60"
   style="fill:#d8d8da"
   width="120"
   height="70" /><rect
   id="XMLID_652_"
   x="87.5"
   y="60"
   style="fill:#c6c5ca"
   width="40"
   height="70" /><rect
   id="XMLID_653_"
   x="57.5"
   y="120"
   style="fill:#98c8ed"
   width="300"
   height="100" /><polygon
   id="XMLID_656_"
   style="fill:#d1e3fa"
   points="199.069,220 299.068,120 185.931,120 85.931,220 " /><path
   id="XMLID_657_"
   style="fill:#a5a5a7;fill-opacity:1"
   d="m 217.5,170 -180,40 c 0,0 20,150 90,210 h 180 c 70,-60 90,-210 90,-210 z" /><path
   id="XMLID_658_"
   style="fill:#d7d7d7;fill-opacity:1"
   d="m 217.5,170 v 250 h 90 c 70,-60 90,-210 90,-210 z" /><path
   id="XMLID_659_"
   style="fill:#017ede;fill-opacity:1"
   d="m 382.5,390 c 0,8.271 -6.729,15 -15,15 -8.271,0 -15,-6.729 -15,-15 h -30 c 0,8.271 -6.729,15 -15,15 -8.271,0 -15,-6.729 -15,-15 h -30 c 0,8.271 -6.729,15 -15,15 -8.271,0 -15,-6.729 -15,-15 h -30 c 0,8.271 -6.729,15 -15,15 -8.271,0 -15,-6.729 -15,-15 h -30 c 0,8.271 -6.729,15 -15,15 -8.271,0 -15,-6.729 -15,-15 h -30 c 0,8.271 -6.729,15 -15,15 -8.271,0 -15,-6.729 -15,-15 h -30 c 0,24.813 20.187,45 45,45 11.517,0 22.032,-4.353 30,-11.495 7.968,7.142 18.483,11.495 30,11.495 11.517,0 22.032,-4.353 30,-11.495 7.968,7.142 18.483,11.495 30,11.495 11.517,0 22.032,-4.353 30,-11.495 7.968,7.142 18.483,11.495 30,11.495 11.517,0 22.032,-4.353 30,-11.495 7.968,7.142 18.483,11.495 30,11.495 11.517,0 22.032,-4.353 30,-11.495 7.968,7.142 18.483,11.495 30,11.495 24.813,0 45,-20.187 45,-45 z" /><path
   id="XMLID_660_"
   style="fill:#bfbec2;fill-opacity:1"
   d="m 37.5,210 c 0,0 12.018,90.072 50,158.541 V 198.889 Z" /><path
   id="XMLID_663_"
   style="fill:#e1e1e2;fill-opacity:1"
   d="m 397.5,210 c 0,0 -12.018,90.072 -50,158.541 V 198.889 Z" />
<circle
   style="fill:#585858;fill-opacity:1;stroke:none;stroke-width:11.3386;stroke-linecap:round;stroke-linejoin:round;stroke-miterlimit:15;paint-order:stroke fill markers"
   id="path1"
   cx="416.25"
   cy="18.750004"
   r="18.750004" /><path
   style="fill:none;fill-opacity:1;stroke:#585858;stroke-width:11.3386;stroke-linecap:round;stroke-linejoin:round;stroke-miterlimit:15;stroke-opacity:1;paint-order:stroke fill markers"
   id="path2"
   sodipodi:type="arc"
   sodipodi:cx="-429.33069"
   sodipodi:cy="5.6693001"
   sodipodi:rx="88.6614"
   sodipodi:ry="88.6614"
   sodipodi:start="0"
   sodipodi:end="1.5707963"
   sodipodi:arc-type="arc"
   d="M -340.66929,5.6693001 A 88.6614,88.6614 0 0 1 -429.33069,94.3307"
   sodipodi:open="true"
   transform="scale(-1,1)" /><path
   style="fill:none;fill-opacity:1;stroke:#585858;stroke-width:11.3386;stroke-linecap:round;stroke-linejoin:round;stroke-miterlimit:15;stroke-opacity:1;paint-order:stroke fill markers"
   id="path2-1"
   sodipodi:type="arc"
   sodipodi:cx="-429.33072"
   sodipodi:cy="5.6693001"
   sodipodi:rx="138.66141"
   sodipodi:ry="138.66141"
   sodipodi:start="0"
   sodipodi:end="1.5707963"
   sodipodi:arc-type="arc"
   d="M -290.66931,5.6693001 A 138.66141,138.66141 0 0 1 -429.33072,144.33071"
   sodipodi:open="true"
   transform="scale(-1,1)" /><path
   style="fill:none;fill-opacity:1;stroke:#585858;stroke-width:11.3386;stroke-linecap:round;stroke-linejoin:round;stroke-miterlimit:15;stroke-opacity:1;paint-order:stroke fill markers"
   id="path2-1-8"
   sodipodi:type="arc"
   sodipodi:cx="-429.33069"
   sodipodi:cy="5.6693001"
   sodipodi:rx="188.66139"
   sodipodi:ry="188.66139"
   sodipodi:start="0"
   sodipodi:end="1.5707963"
   sodipodi:arc-type="arc"
   d="M -240.6693,5.6693001 A 188.66139,188.66139 0 0 1 -429.33069,194.33069"
   sodipodi:open="true"
   transform="scale(-1,1)" /></svg>
