<?xml version="1.0" encoding="UTF-8" standalone="no"?>
<!-- Uploaded to: SVG Repo, www.svgrepo.com, Generator: SVG Repo Mixer Tools -->

<svg
   version="1.1"
   id="Layer_1"
   viewBox="0 0 435 435"
   xml:space="preserve"
   sodipodi:docname="ship-svgrepo-com.svg"
   inkscape:version="1.3.2 (091e20e, 2023-11-25, custom)"
   xmlns:inkscape="http://www.inkscape.org/namespaces/inkscape"
   xmlns:sodipodi="http://sodipodi.sourceforge.net/DTD/sodipodi-0.dtd"
   xmlns="http://www.w3.org/2000/svg"
   xmlns:svg="http://www.w3.org/2000/svg"><defs
   id="defs1" /><sodipodi:namedview
   id="namedview1"
   pagecolor="#ffffff"
   bordercolor="#111111"
   borderopacity="1"
   inkscape:showpageshadow="0"
   inkscape:pageopacity="0"
   inkscape:pagecheckerboard="1"
   inkscape:deskcolor="#d1d1d1"
   inkscape:zoom="1.4142136"
   inkscape:cx="421.78919"
   inkscape:cy="136.11805"
   inkscape:window-width="1680"
   inkscape:window-height="997"
   inkscape:window-x="-8"
   inkscape:window-y="-8"
   inkscape:window-maximized="1"
   inkscape:current-layer="Layer_1" />
<g
   id="XMLID_639_">
	<path
   id="XMLID_642_"
   style="fill:#EEAA66;"
   d="M237.5,70V30c0-16.568-13.432-30-30-30s-30,13.432-30,30v40H237.5z" />
	<path
   id="XMLID_643_"
   style="fill:#E6972A;"
   d="M177.5,30v40h30V0C190.932,0,177.5,13.432,177.5,30z" />
	<path
   id="XMLID_644_"
   style="fill:#E9A440;"
   d="M207.5,0v70h30V30C237.5,13.432,224.068,0,207.5,0z" />
	<rect
   id="XMLID_647_"
   x="87.5"
   y="60"
   style="fill:#F3F3F2;"
   width="240"
   height="70" />
	<rect
   id="XMLID_650_"
   x="287.5"
   y="60"
   style="fill:#F8F8F9;"
   width="40"
   height="70" />
	<rect
   id="XMLID_651_"
   x="87.5"
   y="60"
   style="fill:#D8D8DA;"
   width="120"
   height="70" />
	<rect
   id="XMLID_652_"
   x="87.5"
   y="60"
   style="fill:#C6C5CA;"
   width="40"
   height="70" />
	<rect
   id="XMLID_653_"
   x="57.5"
   y="120"
   style="fill:#98C8ED;"
   width="300"
   height="100" />
	<polygon
   id="XMLID_656_"
   style="fill:#D1E3FA;"
   points="185.931,120 85.931,220 199.069,220 299.068,120  " />
	<path
   id="XMLID_657_"
   style="fill:#D8D8DA;"
   d="M217.5,170l-180,40c0,0,20,150,90,210h180c70-60,90-210,90-210L217.5,170z" />
	<path
   id="XMLID_658_"
   style="fill:#EDEDED;"
   d="M217.5,170v250h90c70-60,90-210,90-210L217.5,170z" />
	<path
   id="XMLID_659_"
   style="fill:#98C8ED;"
   d="M382.5,390c0,8.271-6.729,15-15,15s-15-6.729-15-15h-30c0,8.271-6.729,15-15,15   s-15-6.729-15-15h-30c0,8.271-6.729,15-15,15s-15-6.729-15-15h-30c0,8.271-6.729,15-15,15s-15-6.729-15-15h-30   c0,8.271-6.729,15-15,15s-15-6.729-15-15h-30c0,8.271-6.729,15-15,15s-15-6.729-15-15h-30c0,24.813,20.187,45,45,45   c11.517,0,22.032-4.353,30-11.495c7.968,7.142,18.483,11.495,30,11.495s22.032-4.353,30-11.495   c7.968,7.142,18.483,11.495,30,11.495s22.032-4.353,30-11.495c7.968,7.142,18.483,11.495,30,11.495s22.032-4.353,30-11.495   c7.968,7.142,18.483,11.495,30,11.495s22.032-4.353,30-11.495c7.968,7.142,18.483,11.495,30,11.495c24.813,0,45-20.187,45-45H382.5   z" />
	<path
   id="XMLID_660_"
   style="fill:#C6C5CA;"
   d="M37.5,210c0,0,12.018,90.072,50,158.541V198.889L37.5,210z" />
	<path
   id="XMLID_663_"
   style="fill:#F8F8F9;"
   d="M397.5,210c0,0-12.018,90.072-50,158.541V198.889L397.5,210z" />
</g>
<circle
   style="fill:#585858;fill-opacity:1;stroke:none;stroke-width:11.3386;stroke-linecap:round;stroke-linejoin:round;stroke-miterlimit:15;paint-order:stroke fill markers"
   id="path1"
   cx="416.25"
   cy="18.750004"
   r="18.750004" /><path
   style="fill:none;fill-opacity:1;stroke:#585858;stroke-width:11.3386;stroke-linecap:round;stroke-linejoin:round;stroke-miterlimit:15;stroke-opacity:1;paint-order:stroke fill markers"
   id="path2"
   sodipodi:type="arc"
   sodipodi:cx="-429.33069"
   sodipodi:cy="5.6693001"
   sodipodi:rx="88.6614"
   sodipodi:ry="88.6614"
   sodipodi:start="0"
   sodipodi:end="1.5707963"
   sodipodi:arc-type="arc"
   d="M -340.66929,5.6693001 A 88.6614,88.6614 0 0 1 -429.33069,94.3307"
   sodipodi:open="true"
   transform="scale(-1,1)" /><path
   style="fill:none;fill-opacity:1;stroke:#585858;stroke-width:11.3386;stroke-linecap:round;stroke-linejoin:round;stroke-miterlimit:15;stroke-opacity:1;paint-order:stroke fill markers"
   id="path2-1"
   sodipodi:type="arc"
   sodipodi:cx="-429.33072"
   sodipodi:cy="5.6693001"
   sodipodi:rx="138.66141"
   sodipodi:ry="138.66141"
   sodipodi:start="0"
   sodipodi:end="1.5707963"
   sodipodi:arc-type="arc"
   d="M -290.66931,5.6693001 A 138.66141,138.66141 0 0 1 -429.33072,144.33071"
   sodipodi:open="true"
   transform="scale(-1,1)" /><path
   style="fill:none;fill-opacity:1;stroke:#585858;stroke-width:11.3386;stroke-linecap:round;stroke-linejoin:round;stroke-miterlimit:15;stroke-opacity:1;paint-order:stroke fill markers"
   id="path2-1-8"
   sodipodi:type="arc"
   sodipodi:cx="-429.33069"
   sodipodi:cy="5.6693001"
   sodipodi:rx="188.66139"
   sodipodi:ry="188.66139"
   sodipodi:start="0"
   sodipodi:end="1.5707963"
   sodipodi:arc-type="arc"
   d="M -240.6693,5.6693001 A 188.66139,188.66139 0 0 1 -429.33069,194.33069"
   sodipodi:open="true"
   transform="scale(-1,1)" /></svg>
